<?xml version="1.0" encoding="UTF-8"?>
<svg id="logosandtypes_com" data-name="logosandtypes com" xmlns="http://www.w3.org/2000/svg" viewBox="0 0 150 150">
  <defs>
    <style>
      .cls-1 {
        fill: #fdb515;
      }

      .cls-2 {
        fill: none;
      }

      .cls-3 {
        fill: #00b8c2;
      }
    </style>
  </defs>
  <path class="cls-2" d="M0,0H150V150H0V0Z"/>
  <path class="cls-3" d="M129.08,46.98c.55,10.23-6.23,19.01-15.64,21.64-.13,.08-.21,.13-.3,.17-9.2,2.42-15.98,10.69-15.98,20.55,0,.08-.08,.21-.17,.33-1.31,10.48-10.43,18.59-21.41,18.59h-.42c-10.98,0-20.1-8.1-21.41-18.59-.13-.17-.17-.25-.17-.33,0-9.82-6.78-18.13-15.98-20.55-.08-.04-.17-.08-.3-.17-9.41-2.63-16.2-11.4-15.64-21.64,.55-10.61,9.2-19.3,19.97-20.05,12.63-.88,23.15,8.98,23.15,21.22v.42c.59,4.55,2.63,8.77,5.77,12.03,2.63,2.72,7,2.72,9.62,0,3.14-3.26,5.21-7.48,5.77-12.03v-.42c0-12.24,10.51-22.1,23.15-21.22,10.73,.75,19.42,9.44,20.01,20.05Z"/>
  <path class="cls-1" d="M126.75,121.58c11.92,0,21.58-9.52,21.58-21.26s-9.66-21.26-21.58-21.26-21.58,9.52-21.58,21.26,9.66,21.26,21.58,21.26Z"/>
  <path class="cls-1" d="M23.43,121.79c11.92,0,21.58-9.52,21.58-21.26s-9.66-21.26-21.58-21.26S1.85,88.78,1.85,100.53s9.66,21.26,21.58,21.26Z"/>
</svg>